ply
format ascii 1.0
element vertex 24
property float x
property float y
property float z
element face 32
property list uchar int vertex_indices
end_header
2 0 0
4 0 0
6 0 0
8 0 0
1 2 0
3 2 0
5 2 0
7 2 0
9 2 0
0 4 0
2 4 0
4 4 0
6 4 0
8 4 0
10 4 0
1 6 0
3 6 0
5 6 0
7 6 0
9 6 0
2 8 0
4 8 0
6 8 0
8 8 0
3 0 4 5
3 0 5 1
3 1 5 6
3 1 6 2
3 2 6 7
3 2 7 3
3 3 7 8
3 4 9 10
3 4 10 5
3 5 10 11
3 5 11 6
3 6 11 12
3 6 12 7
3 7 12 13
3 7 13 8
3 8 13 14
3 9 15 10
3 10 15 16
3 10 16 11
3 11 16 17
3 11 17 12
3 12 17 18
3 12 18 13
3 13 18 19
3 13 19 14
3 15 20 16
3 16 20 21
3 16 21 17
3 17 21 22
3 17 22 18
3 18 22 23
3 18 23 19
